<?xml version="1.0" encoding="iso-8859-1"?>
<!-- Uploaded to: SVG Repo, www.svgrepo.com, Generator: SVG Repo Mixer Tools -->
<!DOCTYPE svg PUBLIC "-//W3C//DTD SVG 1.1//EN" "http://www.w3.org/Graphics/SVG/1.1/DTD/svg11.dtd">
<svg fill="#000000" height="800px" width="800px" version="1.1" id="Capa_1" xmlns="http://www.w3.org/2000/svg" xmlns:xlink="http://www.w3.org/1999/xlink" 
	 viewBox="0 0 500 500" xml:space="preserve">
<path d="M436.336,152.018c-39.815-28.605-94.162-47.085-153.149-52.105c-22.121-13.258-48.021-20.417-74.729-20.417
	c-33.673,0-66.067,11.368-91.214,32.009c-7.594,6.234-14.177,13.058-19.641,20.268c-29.334,14.518-53.676,33.341-70.431,54.503
	C9.396,208.728,0,234.05,0,259.504c0,43.439,26.307,84.113,74.073,114.527C121.139,404,183.618,420.504,250,420.504
	S378.86,404,425.927,374.032C473.693,343.618,500,302.944,500,259.504C500,219.687,477.391,181.514,436.336,152.018z
	 M208.112,130.217c-19.504,0-31.442-6.594-31.442-10.185s11.938-10.185,31.442-10.185s31.442,6.594,31.442,10.185
	S227.617,130.217,208.112,130.217z M203.112,99.968c-8.635,0.419-15.776,1.925-21.384,4.118c-3.089-2.014-8.826-5.329-16.266-7.766
	c11.664-3.833,24.301-6.211,37.651-6.716V99.968z M213.112,99.968V89.581c13.528,0.445,26.333,2.813,38.143,6.673
	c-7.624,2.472-13.482,5.878-16.571,7.902C229.049,101.925,221.842,100.392,213.112,99.968z M148.382,103.272
	c9.651,0.326,18.077,3.767,23.474,6.624c-2.055,1.855-3.501,3.863-4.335,5.928c-8.974,2.182-34.16,9.893-49.367,30.407
	c-1.645,2.218-1.179,5.35,1.039,6.994c0.895,0.664,1.938,0.983,2.974,0.983c1.529,0,3.04-0.699,4.021-2.022
	c12.375-16.693,33.288-23.844,42.173-26.235c1.72,2.964,4.75,5.748,9.062,8.056c-9.438,9.937-27.74,31.74-28.963,52.542
	c-0.162,2.757,1.941,5.123,4.698,5.285c0.1,0.006,0.199,0.009,0.298,0.009c2.627,0,4.831-2.05,4.987-4.706
	c1.166-19.817,22.427-42.512,29.201-49.265c4.467,1.156,9.623,1.941,15.471,2.226v60.917c0,2.762,2.239,5,5,5s5-2.238,5-5v-60.917
	c5.95-0.289,11.184-1.098,15.704-2.287c5.729,5.704,22.24,23.225,27.627,40.743c0.661,2.15,2.64,3.531,4.777,3.531
	c0.487,0,0.982-0.071,1.472-0.222c2.64-0.812,4.121-3.609,3.31-6.249c-5.277-17.158-19.224-33.533-27.002-41.709
	c4.241-2.305,7.216-5.075,8.904-8.021c10.387,2.769,38.401,12.353,48.499,37.039c0.792,1.936,2.659,3.107,4.63,3.107
	c0.63,0,1.271-0.12,1.892-0.373c2.556-1.046,3.779-3.965,2.734-6.521c-12.543-30.661-46.667-40.939-56.99-43.395
	c-0.823-2-2.219-3.945-4.19-5.749c5.457-2.911,14.114-6.48,24.03-6.731c3.392,1.665,10.561,5.878,10.978,6.066
	c29.656,18.323,48.252,46.633,48.47,73.135c-5.798-0.688-11.665-1.046-17.573-1.046c-33.673,0-66.066,11.369-91.215,32.013
	c-17.904,14.698-30.182,32.674-35.427,51.27c-25.986-3.846-49.595-13.759-66.859-28.16c-18.014-15.024-27.935-34.062-27.935-53.604
	C88.948,153.17,112.226,121.03,148.382,103.272z M181.643,274.504c-0.504,3.452-0.77,6.909-0.77,10.354
	c0,9.267,1.842,18.313,5.388,26.929c-8.975,1.944-18.723,2.977-28.561,2.977c-38.865,0-71.7-15.9-71.7-34.721
	c0-11.415,12.951-22.698,33.207-29.123C136.123,262.516,157.503,270.861,181.643,274.504z M197.879,313.053
	c-0.031-0.065-0.063-0.129-0.097-0.192c-4.467-8.758-6.908-18.184-6.908-28.002c0-29.765,23.276-61.905,59.43-79.664
	c9.653,0.326,18.079,3.768,23.477,6.624c-2.055,1.855-3.501,3.862-4.335,5.928c-8.975,2.182-34.16,9.893-49.367,30.407
	c-1.645,2.218-1.179,5.35,1.039,6.994c0.895,0.664,1.938,0.983,2.974,0.983c1.529,0,3.04-0.699,4.021-2.022
	c12.375-16.693,33.288-23.844,42.173-26.235c1.72,2.964,4.75,5.748,9.062,8.056c-9.439,9.937-27.74,31.74-28.964,52.542
	c-0.162,2.757,1.941,5.123,4.697,5.285c0.101,0.006,0.199,0.009,0.299,0.009c2.627,0,4.83-2.05,4.986-4.706
	c1.166-19.816,22.427-42.511,29.201-49.265c4.467,1.156,9.623,1.941,15.471,2.226v60.917c0,2.762,2.238,5,5,5s5-2.238,5-5v-60.917
	c5.95-0.289,11.184-1.098,15.704-2.287c5.73,5.704,22.24,23.225,27.628,40.744c0.661,2.15,2.64,3.531,4.777,3.531
	c0.487,0,0.982-0.071,1.472-0.222c2.64-0.813,4.121-3.61,3.31-6.249c-5.278-17.158-19.224-33.534-27.002-41.71
	c4.245-2.307,7.222-5.08,8.909-8.028c10.378,2.747,38.361,12.277,48.495,37.048c0.792,1.936,2.659,3.107,4.63,3.107
	c0.63,0,1.271-0.12,1.892-0.373c2.556-1.046,3.779-3.965,2.734-6.521c-12.543-30.661-46.667-40.939-56.99-43.396
	c-0.823-2-2.219-3.945-4.19-5.748c5.459-2.912,14.119-6.482,24.038-6.732c36.167,17.756,59.453,49.904,59.453,79.675
	c0,46.083-53.612,83.574-119.51,83.574C258.628,368.433,214.457,345.305,197.879,313.053z M341.478,221.956
	c0,3.591-11.938,10.185-31.442,10.185c-19.504,0-31.441-6.594-31.441-10.185c0-3.59,11.938-10.184,31.441-10.184
	C329.54,211.772,341.478,218.366,341.478,221.956z M305.035,201.892c-8.635,0.419-15.776,1.925-21.383,4.118
	c-3.09-2.014-8.828-5.33-16.27-7.767c11.665-3.833,24.302-6.213,37.653-6.718V201.892z M336.606,206.08
	c-5.635-2.231-12.841-3.764-21.571-4.188V191.5c5.732,0.188,11.335,0.717,16.786,1.564c0.161,0.031,0.316,0.078,0.483,0.092
	c0.034,0.003,0.067-0.003,0.101-0.001c7.208,1.151,14.149,2.853,20.779,5.02C345.557,200.647,339.696,204.055,336.606,206.08z
	 M250,410.504c-132.336,0-240-67.738-240-151c0-23.51,8.415-46.059,25.011-67.021c12.948-16.354,30.785-31.281,52.163-43.76
	c-5.368,11.12-8.226,22.728-8.226,34.212c0,23.055,11.442,44.315,30.748,60.729C88.42,251.918,76,265.136,76,280.044
	c0,25.077,35.887,44.721,81.7,44.721c11.422,0,22.775-1.293,33.103-3.743c6.534,11.319,16.186,21.682,28.64,30.542
	c24.356,17.326,56.653,26.868,90.941,26.868c34.287,0,66.584-9.542,90.94-26.868c24.872-17.694,38.569-41.384,38.569-66.706
	c0-25.417-13.958-51.452-38.296-71.431c-18.182-14.925-40.152-24.999-63.654-29.437c0.005-0.354,0.022-0.701,0.022-1.057
	c0-25.289-13.82-51.186-37.928-71.123C409.582,126.464,490,187.942,490,259.504C490,342.766,382.337,410.504,250,410.504z"/>
</svg>