<?xml version="1.0" encoding="UTF-8"?>
<svg version="1.1" xmlns="http://www.w3.org/2000/svg" width="100" height="100">
<path d="M0 0 C2.57191889 1.42218396 4.48892839 3.04767075 6.5 5.1875 C7.31404297 4.55521484 7.31404297 4.55521484 8.14453125 3.91015625 C8.85996094 3.36230469 9.57539062 2.81445312 10.3125 2.25 C11.02019531 1.70472656 11.72789063 1.15945312 12.45703125 0.59765625 C17.28689369 -2.73614937 22.8647942 -2.35983189 28.5 -1.8125 C34.28252468 -0.11175745 38.29785217 3.04465651 41.5 8.1875 C42.40176937 11.92700514 43.26477958 15.65794084 41.5 19.1875 C42.16386719 19.46722656 42.82773438 19.74695313 43.51171875 20.03515625 C50.99952181 23.43472815 54.54133845 26.71055931 57.8125 34.1875 C59.64354504 42.1775147 59.64354504 42.1775147 57.35546875 46.19921875 C51.2787685 53.9614271 41.94747416 58.04034678 32.5 60.1875 C32.17 63.4875 31.84 66.7875 31.5 70.1875 C16.32 70.1875 1.14 70.1875 -14.5 70.1875 C-14.995 65.2375 -14.995 65.2375 -15.5 60.1875 C-16.26183594 59.96835938 -17.02367188 59.74921875 -17.80859375 59.5234375 C-27.25293243 56.62292899 -36.05036459 52.80143984 -41.5 44.1875 C-42.52071006 38.17665187 -40.4834546 33.32406261 -37.5 28.1875 C-34.78182712 25.06160119 -31.88224601 22.56759904 -28.5 20.1875 C-28.83 19.5275 -29.16 18.8675 -29.5 18.1875 C-29.90399154 12.93560993 -29.38990343 9.61868526 -26.5 5.1875 C-19.05500891 -1.93379583 -9.663948 -4.66227436 0 0 Z M-12.5 3.1875 C-13.16 5.8275 -13.82 8.4675 -14.5 11.1875 C-15.82 11.1875 -17.14 11.1875 -18.5 11.1875 C-19.16 9.8675 -19.82 8.5475 -20.5 7.1875 C-23.02259061 9.16170135 -23.4929808 10.15495642 -24.1875 13.375 C-24.290625 14.303125 -24.39375 15.23125 -24.5 16.1875 C-19.43046385 20.32317423 -15.01681721 21.28535011 -8.5 21.1875 C-4.54776627 20.73755339 -0.94364562 20.30391928 2.2578125 17.828125 C3.85830206 16.06527619 3.85830206 16.06527619 3.4375 12.6875 C2.81812042 9.14539904 2.81812042 9.14539904 0.4375 7.25 C-0.201875 6.899375 -0.84125 6.54875 -1.5 6.1875 C-1.83 7.5075 -2.16 8.8275 -2.5 10.1875 C-3.49 10.1875 -4.48 10.1875 -5.5 10.1875 C-6.49 7.8775 -7.48 5.5675 -8.5 3.1875 C-9.82 3.1875 -11.14 3.1875 -12.5 3.1875 Z M21.5 3.1875 C19.14046906 5.54703094 19.00858587 6.96645617 18.5 10.1875 C17.18 10.5175 15.86 10.8475 14.5 11.1875 C14.5 9.5375 14.5 7.8875 14.5 6.1875 C10.43362801 9.55586083 10.43362801 9.55586083 9.1875 14.5 C9.290625 15.386875 9.39375 16.27375 9.5 17.1875 C16.66379327 21.41230116 23.56919529 21.95590766 31.546875 19.93359375 C34.20661955 18.91757133 35.78231164 17.42796308 37.5 15.1875 C36.33857315 10.83214931 35.42300495 8.54130297 31.5 6.1875 C31.5 7.8375 31.5 9.4875 31.5 11.1875 C29.625 11.0625 29.625 11.0625 27.5 10.1875 C26.83333333 8.1875 26.16666667 6.1875 25.5 4.1875 C23.5745356 3.0384288 23.5745356 3.0384288 21.5 3.1875 Z M-22.5 25.1875 C-23.49 27.4975 -24.48 29.8075 -25.5 32.1875 C-26.49 32.1875 -27.48 32.1875 -28.5 32.1875 C-29.16 30.8675 -29.82 29.5475 -30.5 28.1875 C-33.74716062 31.67533514 -33.74716062 31.67533514 -34.5 36.1875 C-26.58 36.1875 -18.66 36.1875 -10.5 36.1875 C-10.17 34.2075 -9.84 32.2275 -9.5 30.1875 C-10.16 29.5275 -10.82 28.8675 -11.5 28.1875 C-11.83 29.5075 -12.16 30.8275 -12.5 32.1875 C-13.82 32.5175 -15.14 32.8475 -16.5 33.1875 C-16.83 30.8775 -17.16 28.5675 -17.5 26.1875 C-19.15 25.8575 -20.8 25.5275 -22.5 25.1875 Z M6.5 25.1875 C5.51 27.4975 4.52 29.8075 3.5 32.1875 C2.51 32.1875 1.52 32.1875 0.5 32.1875 C-0.16 30.8675 -0.82 29.5475 -1.5 28.1875 C-4.41171789 31.85730204 -4.41171789 31.85730204 -5.5 36.1875 C3.74 36.1875 12.98 36.1875 22.5 36.1875 C21.18702878 30.20211763 21.18702878 30.20211763 17.5 28.1875 C17.17 29.5075 16.84 30.8275 16.5 32.1875 C15.51 32.1875 14.52 32.1875 13.5 32.1875 C12.51 29.8775 11.52 27.5675 10.5 25.1875 C9.18 25.1875 7.86 25.1875 6.5 25.1875 Z M35.5 25.1875 C34.02952664 29.09813224 34.02952664 29.09813224 33.5 33.1875 C31.625 32.9375 31.625 32.9375 29.5 32.1875 C28.25 30.125 28.25 30.125 27.5 28.1875 C26.41825838 31.55291838 26.57461831 32.48597322 27.5 36.1875 C35.42 36.1875 43.34 36.1875 51.5 36.1875 C51.04862025 31.29975371 51.04862025 31.29975371 48.4375 29.375 C47.798125 28.983125 47.15875 28.59125 46.5 28.1875 C46.17 29.5075 45.84 30.8275 45.5 32.1875 C44.51 32.1875 43.52 32.1875 42.5 32.1875 C41.51 29.8775 40.52 27.5675 39.5 25.1875 C38.18 25.1875 36.86 25.1875 35.5 25.1875 Z M-36.5 41.1875 C-31.09084825 50.20275292 -22.82841682 52.73388015 -12.9921875 55.42578125 C6.1771206 59.60700617 29.04579834 58.71306752 46.5 49.1875 C49.52138591 46.92976108 51.40387556 44.33168666 53.5 41.1875 C23.8 41.1875 -5.9 41.1875 -36.5 41.1875 Z M-9.5 61.1875 C-9.5 62.5075 -9.5 63.8275 -9.5 65.1875 C2.38 65.1875 14.26 65.1875 26.5 65.1875 C26.5 63.8675 26.5 62.5475 26.5 61.1875 C14.62 61.1875 2.74 61.1875 -9.5 61.1875 Z " fill="#000000" transform="translate(41.5,29.8125)"/>
<path d="M0 0 C0.495 1.98 0.495 1.98 1 4 C-12.15894071 8.64307339 -25.54964775 12.29206506 -39 16 C-13.755 14.02 -13.755 14.02 12 12 C12.495 14.475 12.495 14.475 13 17 C10.53634178 18.23182911 8.57139983 18.32304032 5.82275391 18.57250977 C4.74047516 18.67253799 3.65819641 18.77256622 2.54312134 18.87562561 C1.36615692 18.97983322 0.1891925 19.08404083 -1.0234375 19.19140625 C-2.23512604 19.30097153 -3.44681458 19.4105368 -4.69522095 19.52342224 C-7.26912348 19.75489305 -9.84321718 19.98424621 -12.41748047 20.21166992 C-16.32455002 20.55802766 -20.23062644 20.9142952 -24.13671875 21.27148438 C-26.64057078 21.49539885 -29.14447556 21.71872425 -31.6484375 21.94140625 C-33.38352066 22.10075401 -33.38352066 22.10075401 -35.15365601 22.26332092 C-56.78309263 24.14460491 -56.78309263 24.14460491 -63 20 C-62.67 18.68 -62.34 17.36 -62 16 C-54.80484369 13.90444402 -47.607221 11.81755749 -40.40639305 9.74157715 C-37.06249318 8.7772477 -33.71949656 7.81000096 -30.37841797 6.8359375 C-26.53344601 5.7151097 -22.68484178 4.60724958 -18.8359375 3.5 C-17.64197357 3.15001953 -16.44800964 2.80003906 -15.21786499 2.43945312 C-14.09715607 2.11912109 -12.97644714 1.79878906 -11.82177734 1.46875 C-10.84026703 1.18451172 -9.85875671 0.90027344 -8.84750366 0.60742188 C-5.82122137 -0.03813658 -3.08524179 -0.10743575 0 0 Z " fill="#000000" transform="translate(83,0)"/>
</svg>
