<?xml version="1.0" encoding="UTF-8"?>
<svg version="1.1" xmlns="http://www.w3.org/2000/svg" width="100" height="100">
<path d="M0 0 C1.45212891 -0.01740234 1.45212891 -0.01740234 2.93359375 -0.03515625 C13.35178008 0.00679618 21.74347728 2.26485417 29.5 9.375 C34.28722457 14.66614294 36.16849856 18.89983092 36.03466797 26.02246094 C34.89193823 33.18774166 31.26685235 39.5595333 28.0625 46 C27.34639262 47.48214936 26.63218364 48.96521751 25.91992188 50.44921875 C20.77663185 61.09836815 20.77663185 61.09836815 19.5 62.375 C17.1243148 62.4633967 14.77791326 62.49030305 12.40234375 62.47265625 C11.33905602 62.47053383 11.33905602 62.47053383 10.25428772 62.46836853 C7.98198288 62.46275443 5.70977525 62.45019963 3.4375 62.4375 C1.90039204 62.43248681 0.36328255 62.42792359 -1.17382812 62.42382812 C-4.94925642 62.41278042 -8.72461171 62.39550641 -12.5 62.375 C-11.4375 60.375 -11.4375 60.375 -9.5 58.375 C-7.19 58.375 -4.88 58.375 -2.5 58.375 C-2.5 51.115 -2.5 43.855 -2.5 36.375 C-1.18 36.375 0.14 36.375 1.5 36.375 C1.5 43.635 1.5 50.895 1.5 58.375 C3.48 58.375 5.46 58.375 7.5 58.375 C7.89832031 56.62123047 7.89832031 56.62123047 8.3046875 54.83203125 C8.66124851 53.28380583 9.01803102 51.73563141 9.375 50.1875 C9.54902344 49.41857422 9.72304687 48.64964844 9.90234375 47.85742188 C10.82545044 43.87438746 11.83072186 40.12711617 13.5 36.375 C14.82 36.375 16.14 36.375 17.5 36.375 C17.04034292 43.68196249 15.61670277 50.37257448 13.5 57.375 C14.16 57.375 14.82 57.375 15.5 57.375 C19.46 48.795 23.42 40.215 27.5 31.375 C26.3956608 30.05079751 26.3956608 30.05079751 23.625 30.1875 C20.33429242 30.12156487 20.33429242 30.12156487 17.5 32.375 C14.86565746 32.05373872 12.87289903 31.56144952 10.5 30.375 C6.44857881 30.11639865 4.95662331 30.07058446 1.5 32.375 C-1.13434254 32.05373872 -3.12710097 31.56144952 -5.5 30.375 C-9.55142119 30.11639865 -11.04337669 30.07058446 -14.5 32.375 C-17.13434254 32.05373872 -19.12710097 31.56144952 -21.5 30.375 C-23.85372406 30.32935202 -26.20864512 30.336687 -28.5625 30.375 C-30.87469498 30.4125585 -33.18797294 30.42176667 -35.5 30.375 C-37.18554595 28.68945405 -36.83148937 26.68795927 -36.9375 24.375 C-36.85392686 17.93151084 -34.89238632 14.02096739 -30.5 9.375 C-21.60092582 1.62856781 -11.49561317 -0.13776367 0 0 Z M-26.41015625 13.01171875 C-30.13807734 16.93352699 -31.28062059 20.00020438 -31.5 25.375 C-30.27023438 25.35759766 -30.27023438 25.35759766 -29.015625 25.33984375 C-27.93796875 25.33082031 -26.8603125 25.32179688 -25.75 25.3125 C-24.14898437 25.29509766 -24.14898437 25.29509766 -22.515625 25.27734375 C-19.9509249 25.36039751 -17.95714328 25.76071418 -15.5 26.375 C-14.84 26.045 -14.18 25.715 -13.5 25.375 C-11.87731009 25.27888248 -10.25052694 25.24517648 -8.625 25.25 C-7.76132812 25.24742188 -6.89765625 25.24484375 -6.0078125 25.2421875 C-3.5 25.375 -3.5 25.375 -1.3046875 25.9453125 C0.58599617 26.59959352 0.58599617 26.59959352 2.5 25.375 C4.12268991 25.27888248 5.74947306 25.24517648 7.375 25.25 C8.23867187 25.24742188 9.10234375 25.24484375 9.9921875 25.2421875 C12.5 25.375 12.5 25.375 14.6953125 25.9453125 C16.58599617 26.59959352 16.58599617 26.59959352 18.5 25.375 C20.54055005 25.30434383 22.58334257 25.29078024 24.625 25.3125 C25.72070312 25.32152344 26.81640625 25.33054687 27.9453125 25.33984375 C29.20988281 25.35724609 29.20988281 25.35724609 30.5 25.375 C30.06330642 19.91633027 29.06112098 16.57529654 25.5 12.375 C11.4049813 1.28283311 -12.65514683 1.22572908 -26.41015625 13.01171875 Z " fill="#000000" transform="translate(64.5,33.625)"/>
<path d="M0 0 C1.88554239 -0.01653985 3.7710226 -0.04380394 5.65625 -0.08203125 C8.37891062 -0.13694285 11.10010156 -0.15869661 13.82324219 -0.17333984 C14.66095154 -0.19600922 15.49866089 -0.21867859 16.36175537 -0.24203491 C20.57962066 -0.22689353 23.26350979 0.05443257 26.60546875 2.7578125 C31.07214532 7.42033431 30.47395424 11.64137742 30.44824219 17.90869141 C29.94620385 22.71625418 28.74275384 24.30519211 25.08886719 27.35009766 C19.96859531 29.9102336 11.87747876 28.66354419 6.17773438 28.70019531 C4.29219198 28.71673516 2.40671178 28.74399925 0.52148438 28.78222656 C-2.20117624 28.83713817 -4.92236718 28.85889192 -7.64550781 28.87353516 C-8.48321716 28.89620453 -9.32092651 28.9188739 -10.184021 28.94223022 C-14.40188629 28.92708884 -17.08577542 28.64576275 -20.42773438 25.94238281 C-24.89441095 21.279861 -24.29621987 17.0588179 -24.27050781 10.79150391 C-23.76846948 5.98394113 -22.56501947 4.3950032 -18.91113281 1.35009766 C-13.79086093 -1.21003828 -5.69974439 0.03665112 0 0 Z M-18.91113281 8.35009766 C-18.91113281 9.67009766 -18.91113281 10.99009766 -18.91113281 12.35009766 C-4.39113281 12.35009766 10.12886719 12.35009766 25.08886719 12.35009766 C24.59734237 7.48877271 24.59734237 7.48877271 22.08886719 5.35009766 C16.81788978 3.446374 10.76129586 4.16414519 5.24438477 4.16479492 C3.16173867 4.16260854 1.07962282 4.14443176 -1.00292969 4.12548828 C-2.32228516 4.12355469 -3.64164063 4.12162109 -5.00097656 4.11962891 C-6.20616943 4.11552002 -7.4113623 4.11141113 -8.65307617 4.10717773 C-13.00125489 4.4313769 -15.81319488 5.25215972 -18.91113281 8.35009766 Z M-18.91113281 16.35009766 C-18.41960799 21.21142261 -18.41960799 21.21142261 -15.91113281 23.35009766 C-10.6401554 25.25382131 -4.58356148 24.53605013 0.93334961 24.53540039 C3.01599571 24.53758677 5.09811156 24.55576355 7.18066406 24.57470703 C8.50001953 24.57664062 9.819375 24.57857422 11.17871094 24.58056641 C12.38390381 24.58467529 13.58909668 24.58878418 14.83081055 24.59301758 C19.17898927 24.26881842 21.99092925 23.44803559 25.08886719 20.35009766 C25.08886719 19.03009766 25.08886719 17.71009766 25.08886719 16.35009766 C10.56886719 16.35009766 -3.95113281 16.35009766 -18.91113281 16.35009766 Z " fill="#000000" transform="translate(23.9111328125,67.64990234375)"/>
<path d="M0 0 C3.41946924 -0.41670951 4.71433 -0.2031817 7.5703125 1.828125 C8.83488281 3.02695313 8.83488281 3.02695313 10.125 4.25 C10.97320312 5.03890625 11.82140625 5.8278125 12.6953125 6.640625 C18 12.07118644 18 12.07118644 18 16 C18.99 16.0825 19.98 16.165 21 16.25 C26.61521023 17.04891202 32.36189085 19.53096469 36 24 C36 24.99 36 25.98 36 27 C30.5481481 27.51922399 28.43998128 25.98844894 24 23 C22.30029076 22.54944215 20.59076633 22.13491532 18.875 21.75 C14.3929768 20.53249519 14.3929768 20.53249519 12.6796875 18.2109375 C12.06228222 16.82566683 11.48088764 15.42375529 10.9375 14.0078125 C9.39389686 10.70192911 6.91067548 9.1168549 4 7 C3.34 7.556875 2.68 8.11375 2 8.6875 C-0.34818005 10.49755545 -2.59273835 11.99092157 -5.125 13.5 C-8.12398996 15.35463853 -10.27610125 16.83951896 -12 20 C-12.309375 21.5159375 -12.309375 21.5159375 -12.625 23.0625 C-14 26 -14 26 -16.01953125 26.9453125 C-17.6022164 27.43111247 -19.19954127 27.87204706 -20.80859375 28.26171875 C-23.30775594 29.10368248 -24.40394161 29.91514873 -26 32 C-26.75011367 35.45728358 -26.75011367 35.45728358 -26 39 C-20.93945132 44.50706768 -13.06450811 44.26451696 -6 45 C-6.33 46.65 -6.66 48.3 -7 50 C-8.60407328 50.02708567 -10.2082785 50.04643483 -11.8125 50.0625 C-13.15248047 50.07990234 -13.15248047 50.07990234 -14.51953125 50.09765625 C-17 50 -17 50 -20 49 C-19.01 54.445 -19.01 54.445 -18 60 C-20.475 60.495 -20.475 60.495 -23 61 C-23.23074219 59.97519531 -23.46148437 58.95039062 -23.69921875 57.89453125 C-24.02771251 56.53362854 -24.35719211 55.17296353 -24.6875 53.8125 C-24.83638672 53.13896484 -24.98527344 52.46542969 -25.13867188 51.77148438 C-26.37493353 46.80219732 -28.30115159 44.63247429 -32 41 C-33.06870634 36.6811691 -33.03128251 32.05444469 -31.0078125 28.0234375 C-28.81070447 25.25317085 -26.38476851 23.05774016 -23 22 C-20.25 21.875 -20.25 21.875 -18 22 C-17.938125 21.13375 -17.87625 20.2675 -17.8125 19.375 C-16.54195807 14.09736428 -13.99345955 11.26001689 -9.515625 8.4296875 C-7.76252323 7.42140064 -5.99340535 6.4402781 -4.20703125 5.4921875 C-1.79948868 3.86443305 -1.02843634 2.67738176 0 0 Z " fill="#000000" transform="translate(32,4)"/>
</svg>
