<?xml version="1.0" encoding="UTF-8"?>
<svg version="1.1" xmlns="http://www.w3.org/2000/svg" width="100" height="100">
<path d="M0 0 C3.44746151 0.35178179 3.91840979 0.77857521 6.0625 3.3125 C6.76375 3.56 7.465 3.8075 8.1875 4.0625 C10.0625 5.3125 10.0625 5.3125 10.8125 8.9375 C10.895 10.05125 10.9775 11.165 11.0625 12.3125 C9.05178293 13.89234913 7.18053264 15.25516986 4.875 16.375 C2.88357843 17.17952161 2.88357843 17.17952161 2.0625 19.3125 C1.93697001 22.05372471 1.87731739 24.75852399 1.875 27.5 C1.86275391 28.24314453 1.85050781 28.98628906 1.83789062 29.75195312 C1.82518642 34.58378452 2.31839754 38.73856242 4.0625 43.3125 C7.02099927 45.64664647 7.02099927 45.64664647 10.0625 47.3125 C12.51239217 52.21228434 11.712299 59.7624167 10.390625 64.94921875 C9.69735901 66.77067703 8.8923486 68.54907173 8.0625 70.3125 C7.0725 70.3125 6.0825 70.3125 5.0625 70.3125 C5.7225 67.0125 6.3825 63.7125 7.0625 60.3125 C6.05896484 60.80169922 6.05896484 60.80169922 5.03515625 61.30078125 C-17.84673067 71.71280765 -52.85826331 72.49740259 -76.60546875 64 C-79.43444858 62.85408412 -82.19479151 61.64950433 -84.9375 60.3125 C-80.92879666 72.92812523 -75.51459894 82.26303597 -63.5 88.59765625 C-55.34975297 92.33765448 -48.30659265 92.55604792 -39.375 92.625 C-38.14974609 92.65400391 -36.92449219 92.68300781 -35.66210938 92.71289062 C-25.74270894 92.78159185 -17.15494208 91.08625148 -8.9375 85.25 C-7.885625 84.52103516 -7.885625 84.52103516 -6.8125 83.77734375 C-4.90558623 82.35774193 -4.90558623 82.35774193 -3.3125 80.62890625 C-1.9375 79.3125 -1.9375 79.3125 0.0625 79.3125 C-0.22685734 82.64010944 -0.64583974 84.02353033 -3.0546875 86.41015625 C-3.96476562 87.05855469 -4.87484375 87.70695312 -5.8125 88.375 C-6.69679688 89.02597656 -7.58109375 89.67695312 -8.4921875 90.34765625 C-17.71414253 95.60688911 -26.19523247 96.98652918 -36.72509766 96.88891602 C-38.80404442 96.87505637 -40.87846213 96.90922806 -42.95703125 96.94726562 C-55.46303743 97.02007742 -66.13454064 93.84745178 -75.71875 85.5390625 C-84.09258002 77.13574716 -88.98989765 67.34436271 -89.5 55.4375 C-89.30525547 48.87850413 -89.30525547 48.87850413 -86.5625 46.0625 C-83.9375 44.3125 -83.9375 44.3125 -81.9375 43.3125 C-81.21534871 41.55748964 -81.21534871 41.55748964 -80.625 39.5 C-79.19257121 35.50352368 -77.70018294 33.50010636 -73.9375 31.3125 C-72.3596875 31.0959375 -72.3596875 31.0959375 -70.75 30.875 C-69.821875 30.689375 -68.89375 30.50375 -67.9375 30.3125 C-66.81664688 27.9694191 -66.81664688 27.9694191 -65.9375 25.3125 C-62.48506063 21.86006063 -59.80558099 20.62322857 -54.9375 20.3125 C-52.5625 20.75 -52.5625 20.75 -50.9375 21.3125 C-50.6590625 20.4153125 -50.6590625 20.4153125 -50.375 19.5 C-48.26163597 16.28401126 -45.57158581 15.15219407 -41.9375 14.3125 C-35.86957081 14.03860042 -31.55695619 15.40372938 -26.9375 19.3125 C-26.9375 19.9725 -26.9375 20.6325 -26.9375 21.3125 C-25.81730469 20.81878906 -24.69710937 20.32507813 -23.54296875 19.81640625 C-22.07034305 19.16920132 -20.59768511 18.52206973 -19.125 17.875 C-18.38701172 17.54951172 -17.64902344 17.22402344 -16.88867188 16.88867188 C-16.17646484 16.57607422 -15.46425781 16.26347656 -14.73046875 15.94140625 C-14.0758667 15.65338135 -13.42126465 15.36535645 -12.74682617 15.06860352 C-11.17215413 14.41056016 -9.55655892 13.85218631 -7.9375 13.3125 C-5.9839027 10.38210405 -5.68421438 9.5498049 -5.4375 6.25 C-4.85600529 1.67072914 -4.6521415 0.49490867 0 0 Z M-0.9375 3.3125 C-1.50289517 5.49330993 -2.00588701 7.66298343 -2.4375 9.875 C-2.9375 12.3125 -2.9375 12.3125 -3.9375 15.3125 C-2.9475 15.6425 -1.9575 15.9725 -0.9375 16.3125 C-0.545625 15.673125 -0.15375 15.03375 0.25 14.375 C2.44722296 11.87471181 3.82041433 11.66299575 7.0625 11.3125 C7.0625 9.9925 7.0625 8.6725 7.0625 7.3125 C5.7425 7.3125 4.4225 7.3125 3.0625 7.3125 C2.4025 5.9925 1.7425 4.6725 1.0625 3.3125 C0.4025 3.3125 -0.2575 3.3125 -0.9375 3.3125 Z M-46.9375 20.3125 C-47.370625 21.034375 -47.80375 21.75625 -48.25 22.5 C-49.9375 24.3125 -49.9375 24.3125 -51.94140625 24.42578125 C-53.11509766 24.36970703 -53.11509766 24.36970703 -54.3125 24.3125 C-57.77635321 24.1604284 -58.74546427 24.2021816 -61.875 26 C-63.99521158 28.37720692 -65.01179631 30.28292428 -65.9375 33.3125 C-66.989375 33.35375 -68.04125 33.395 -69.125 33.4375 C-72.98916262 34.32435699 -74.7599349 35.23988081 -77.1484375 38.4296875 C-78.42211468 41.4688578 -77.71646022 44.09707497 -77.13671875 47.26171875 C-76.9375 49.3125 -76.9375 49.3125 -78.375 51.75 C-78.890625 52.265625 -79.40625 52.78125 -79.9375 53.3125 C-79.9375 53.9725 -79.9375 54.6325 -79.9375 55.3125 C-80.9275 55.3125 -81.9175 55.3125 -82.9375 55.3125 C-81.9475 52.3425 -80.9575 49.3725 -79.9375 46.3125 C-81.9175 47.6325 -83.8975 48.9525 -85.9375 50.3125 C-85.65982002 53.64465981 -85.26181114 55.00419691 -82.80078125 57.34375 C-79.67078929 59.49588636 -76.95241653 60.50817935 -73.3125 61.5625 C-72.18585938 61.89765625 -71.05921875 62.2328125 -69.8984375 62.578125 C-66.96064508 63.43286374 -66.96064508 63.43286374 -63.9375 63.3125 C-63.85607073 61.5632786 -63.79811459 59.81295458 -63.75 58.0625 C-63.71519531 57.08796875 -63.68039063 56.1134375 -63.64453125 55.109375 C-63.98168656 51.89066564 -64.70763333 50.61616841 -66.9375 48.3125 C-68.60142045 47.63900839 -70.26782028 46.9715841 -71.9375 46.3125 C-72.9375 43.3125 -72.9375 43.3125 -72.25 41.3125 C-70.67811723 38.91725007 -69.45026037 37.70847799 -66.9375 36.3125 C-63.75 36.0625 -63.75 36.0625 -60.9375 36.3125 C-59.9375 37.3125 -59.9375 37.3125 -59.5625 40.6875 C-58.89024227 44.80682136 -58.89024227 44.80682136 -55.9375 47.3125 C-53.50673761 48.29496842 -51.09503606 49.195134 -48.625 50.0625 C-41.04675601 52.90422876 -36.98649521 55.93510114 -33.5625 63.25 C-33.35625 63.930625 -33.15 64.61125 -32.9375 65.3125 C-21.04292823 65.96129482 -2.96428077 64.3560111 6.3515625 56.34375 C8.32692742 54.42825666 8.32692742 54.42825666 8.125 51.75 C6.74978394 48.59509256 5.10079861 47.79269676 2.0625 46.3125 C3.0525 49.2825 4.0425 52.2525 5.0625 55.3125 C4.0725 55.3125 3.0825 55.3125 2.0625 55.3125 C-1.02240566 47.70306604 -1.02240566 47.70306604 -0.3125 44.4375 C0.32291068 41.31426607 0.32291068 41.31426607 -1.0625 38.625 C-3.16633997 36.03026404 -4.91201789 34.71455269 -7.9375 33.3125 C-9.2575 33.3125 -10.5775 33.3125 -11.9375 33.3125 C-12.35 32.384375 -12.7625 31.45625 -13.1875 30.5 C-15.30384805 26.56924891 -15.30384805 26.56924891 -18.9375 24.3125 C-20.43807859 24.3125 -21.93898191 24.35888922 -23.4375 24.4375 C-25.828125 24.53125 -25.828125 24.53125 -27.9375 24.3125 C-30.1875 21.9375 -30.1875 21.9375 -31.9375 19.3125 C-37.60131478 16.33899724 -41.55609287 17.10655532 -46.9375 20.3125 Z M-13.125 18.8125 C-14.19814453 19.23015625 -14.19814453 19.23015625 -15.29296875 19.65625 C-15.83566406 19.8728125 -16.37835938 20.089375 -16.9375 20.3125 C-16.9375 20.9725 -16.9375 21.6325 -16.9375 22.3125 C-15.761875 23.240625 -15.761875 23.240625 -14.5625 24.1875 C-11.9375 26.3125 -11.9375 26.3125 -11.125 28.4375 C-9.5868912 30.86609284 -8.55141823 30.88136797 -5.8125 31.5625 C-4.53375 31.81 -3.255 32.0575 -1.9375 32.3125 C-1.82942869 30.37622231 -1.7518775 28.43822244 -1.6875 26.5 C-1.64109375 25.42105469 -1.5946875 24.34210937 -1.546875 23.23046875 C-1.65415793 20.23090063 -1.65415793 20.23090063 -3.765625 18.42578125 C-7.29498849 16.61666507 -9.62746916 17.43642229 -13.125 18.8125 Z M-64.9375 38.3125 C-65.2675 39.3025 -65.5975 40.2925 -65.9375 41.3125 C-68 42 -68 42 -69.9375 42.3125 C-69.6075 43.3025 -69.2775 44.2925 -68.9375 45.3125 C-67.29198038 46.02977778 -65.62327711 46.69575228 -63.9375 47.3125 C-63.2775 47.9725 -62.6175 48.6325 -61.9375 49.3125 C-60.56276625 45.03555054 -61.55061557 42.47315329 -62.9375 38.3125 C-63.5975 38.3125 -64.2575 38.3125 -64.9375 38.3125 Z M-58.9375 50.3125 C-61.23810534 52.1753949 -61.23810534 52.1753949 -61.1328125 55.1328125 C-61.10960938 56.22335938 -61.08640625 57.31390625 -61.0625 58.4375 C-61.04445313 59.53320312 -61.02640625 60.62890625 -61.0078125 61.7578125 C-60.98460938 62.60085937 -60.96140625 63.44390625 -60.9375 64.3125 C-55.76432579 65.37559567 -50.81380664 65.42943938 -45.5625 65.375 C-44.73105469 65.37048828 -43.89960937 65.36597656 -43.04296875 65.36132812 C-41.00778103 65.34963164 -38.97263077 65.33169935 -36.9375 65.3125 C-37.5566492 61.56008063 -38.20466607 59.24420643 -41.078125 56.58203125 C-46.34302554 52.98729874 -52.5664399 50.3125 -58.9375 50.3125 Z " fill="#000000" transform="translate(88.9375,3.6875)"/>
<path d="M0 0 C7.2264303 -0.61240935 7.2264303 -0.61240935 11 2.375 C13 5 13 5 13 7 C13.928125 7.0825 14.85625 7.165 15.8125 7.25 C19 8 19 8 20.875 9.5625 C22.52772156 13.14339672 22.19618208 16.07635835 22 20 C20.68 20.33 19.36 20.66 18 21 C18.06510417 18.98177083 18.13020833 16.96354167 18.1953125 14.9453125 C18.18331689 12.76136355 18.18331689 12.76136355 16 11 C15.01 10.896875 14.02 10.79375 13 10.6875 C12.01 10.460625 11.02 10.23375 10 10 C9.33333333 8.33333333 8.66666667 6.66666667 8 5 C5.06991681 4.16442277 5.06991681 4.16442277 2 4 C1.01 3.67 0.02 3.34 -1 3 C-0.67 2.01 -0.34 1.02 0 0 Z " fill="#000000" transform="translate(61,33)"/>
<path d="M0 0 C0.99 0 1.98 0 3 0 C2.979375 1.051875 2.95875 2.10375 2.9375 3.1875 C2.86017631 6.8314491 2.86017631 6.8314491 3.625 9.625 C4.099177 12.62812101 3.30856342 14.30589884 2 17 C1.01 17 0.02 17 -1 17 C-1.02691685 14.54159395 -1.04679802 12.08348118 -1.0625 9.625 C-1.07087891 8.92632812 -1.07925781 8.22765625 -1.08789062 7.5078125 C-1.11328125 2.2265625 -1.11328125 2.2265625 0 0 Z " fill="#000000" transform="translate(36,2)"/>
<path d="M0 0 C0.99 0.33 1.98 0.66 3 1 C3.02692484 3.29160319 3.04636124 5.58329546 3.0625 7.875 C3.07410156 9.15117187 3.08570312 10.42734375 3.09765625 11.7421875 C3 15 3 15 2 17 C1.01 17 0.02 17 -1 17 C-0.979375 15.948125 -0.95875 14.89625 -0.9375 13.8125 C-0.86017631 10.1685509 -0.86017631 10.1685509 -1.625 7.375 C-2.099177 4.37187899 -1.30856342 2.69410116 0 0 Z " fill="#000000" transform="translate(62,2)"/>
<path d="M0 0 C0.99 0 1.98 0 3 0 C3 4.95 3 9.9 3 15 C1.68 15.33 0.36 15.66 -1 16 C-1.02685095 13.52076199 -1.04676547 11.0418116 -1.0625 8.5625 C-1.07506836 7.50192383 -1.07506836 7.50192383 -1.08789062 6.41992188 C-1.09653588 4.61306441 -1.05220011 2.80612397 -1 1 C-0.67 0.67 -0.34 0.34 0 0 Z " fill="#000000" transform="translate(49,0)"/>
<path d="M0 0 C0.66 0 1.32 0 2 0 C2.33 2.31 2.66 4.62 3 7 C1.68 7 0.36 7 -1 7 C-1.04254356 5.00045254 -1.04080783 2.99958364 -1 1 C-0.67 0.67 -0.34 0.34 0 0 Z " fill="#000000" transform="translate(61,60)"/>
<path d="M0 0 C0.99 0 1.98 0 3 0 C3.33 1.98 3.66 3.96 4 6 C3.01 6.66 2.02 7.32 1 8 C0.40267181 5.23735711 0 2.83967231 0 0 Z " fill="#000000" transform="translate(73,58)"/>
<path d="M0 0 C1.32 0 2.64 0 4 0 C4 3 4 3 2.6875 4.6875 C1 6 1 6 -2 6 C-1.125 1.125 -1.125 1.125 0 0 Z " fill="#000000" transform="translate(63,46)"/>
<path d="M0 0 C0 0.99 0 1.98 0 3 C-2.31 3 -4.62 3 -7 3 C-7 2.01 -7 1.02 -7 0 C-4.3333581 -1.33332095 -2.83319697 -0.67102033 0 0 Z " fill="#000000" transform="translate(42,33)"/>
<path d="M0 0 C0.99 0.33 1.98 0.66 3 1 C2.67 2.32 2.34 3.64 2 5 C1.01 4.67 0.02 4.34 -1 4 C-0.67 2.68 -0.34 1.36 0 0 Z " fill="#000000" transform="translate(51,33)"/>
<path d="M0 0 C1.32 0 2.64 0 4 0 C3.67 1.32 3.34 2.64 3 4 C2.01 3.67 1.02 3.34 0 3 C0 2.01 0 1.02 0 0 Z " fill="#000000" transform="translate(49,51)"/>
<path d="M0 0 C0.99 0 1.98 0 3 0 C3 1.32 3 2.64 3 4 C1.68 3.67 0.36 3.34 -1 3 C-0.67 2.01 -0.34 1.02 0 0 Z " fill="#000000" transform="translate(39,42)"/>
<path d="M0 0 C0.99 0 1.98 0 3 0 C3 1.32 3 2.64 3 4 C2.01 4 1.02 4 0 4 C0 2.68 0 1.36 0 0 Z " fill="#000000" transform="translate(91,77)"/>
</svg>
